<svg width="176" height="32" viewBox="0 0 176 32" fill="none" xmlns="http://www.w3.org/2000/svg">
<path d="M16 4H10.6667C6.98477 4 4 6.98477 4 10.6667V21.3333C4 25.0152 6.98477 28 10.6667 28H21.3333C25.0152 28 28 25.0152 28 21.3333V10.6667C28 6.98477 25.0152 4 21.3333 4H16Z" stroke="#212121" stroke-width="2" stroke-linecap="round" stroke-linejoin="round"/>
<path d="M16 10.6666C18.9455 10.6666 21.3334 13.0544 21.3334 16C21.3334 18.9455 18.9455 21.3333 16 21.3333C13.0545 21.3333 10.6667 18.9454 10.6667 16C10.6667 13.0544 13.0545 10.6666 16 10.6666Z" stroke="#212121" stroke-width="2" stroke-linecap="round" stroke-linejoin="round"/>
<path d="M22.6667 11.3334C23.7713 11.3334 24.6667 10.4379 24.6667 9.33337C24.6667 8.2288 23.7713 7.33337 22.6667 7.33337C21.5621 7.33337 20.6667 8.2288 20.6667 9.33337C20.6667 10.4379 21.5621 11.3334 22.6667 11.3334Z" fill="#212121"/>
<path fill-rule="evenodd" clip-rule="evenodd" d="M72 16.0893C72 24.044 77.7773 30.6587 85.3333 32V20.444H81.3333V16H85.3333V12.444C85.3333 8.444 87.9107 6.22267 91.556 6.22267C92.7107 6.22267 93.956 6.4 95.1107 6.57733V10.6667H93.0667C91.1107 10.6667 90.6667 11.644 90.6667 12.8893V16H94.9333L94.2227 20.444H90.6667V32C98.2227 30.6587 104 24.0453 104 16.0893C104 7.24 96.8 0 88 0C79.2 0 72 7.24 72 16.0893Z" fill="#212121"/>
<g clip-path="url(#clip0_2_221)">
<path d="M175.334 8.67606C175.152 8.0297 174.799 7.44452 174.312 6.98273C173.811 6.50673 173.197 6.16624 172.528 5.99339C170.024 5.33339 159.992 5.33339 159.992 5.33339C155.81 5.28581 151.629 5.49509 147.472 5.96006C146.803 6.14568 146.19 6.49378 145.688 6.97339C145.195 7.44806 144.838 8.03339 144.651 8.67473C144.202 11.0904 143.985 13.5432 144 16.0001C143.984 18.4547 144.202 20.9067 144.651 23.3254C144.834 23.9641 145.19 24.5467 145.684 25.0174C146.179 25.4881 146.795 25.8281 147.472 26.0081C150.01 26.6667 159.992 26.6667 159.992 26.6667C164.18 26.7144 168.366 26.5051 172.528 26.0401C173.197 25.8672 173.811 25.5267 174.312 25.0507C174.799 24.589 175.152 24.0038 175.332 23.3574C175.792 20.9427 176.016 18.4888 176 16.0307C176.035 13.5622 175.811 11.0968 175.334 8.67473V8.67606ZM156.803 20.5654V11.4361L165.15 16.0014L156.803 20.5654Z" fill="#212121"/>
</g>
<defs>
<clipPath id="clip0_2_221">
<rect width="32" height="32" fill="white" transform="translate(144)"/>
</clipPath>
</defs>
</svg>
